<?xml version="1.0" encoding="UTF-8" standalone="no"?>
<!DOCTYPE svg PUBLIC "-//W3C//DTD SVG 1.1//EN" "http://www.w3.org/Graphics/SVG/1.1/DTD/svg11.dtd">
<svg version="1.1" xmlns="http://www.w3.org/2000/svg" xmlns:xlink="http://www.w3.org/1999/xlink" preserveAspectRatio="xMidYMid meet" viewBox="0 0 360 360" width="360" height="360"><defs><path d="M192.29 30.5L198.34 31.11L204.32 31.96L210.21 33.05L216.03 34.36L221.76 35.9L227.39 37.65L232.93 39.62L238.36 41.8L243.69 44.17L248.91 46.75L254.01 49.53L258.99 52.49L263.84 55.63L268.56 58.96L273.15 62.46L277.6 66.13L281.9 69.96L286.05 73.95L290.04 78.1L293.87 82.4L297.54 86.85L301.04 91.44L304.37 96.16L307.51 101.01L310.47 105.99L313.25 111.09L315.83 116.31L318.2 121.64L320.38 127.07L322.35 132.61L324.1 138.24L325.64 143.97L326.95 149.79L328.04 155.68L328.89 161.66L329.5 167.71L329.87 173.82L330 180L329.87 186.18L329.5 192.29L328.89 198.34L328.04 204.32L326.95 210.21L325.64 216.03L324.1 221.76L322.35 227.39L320.38 232.93L318.2 238.36L315.83 243.69L313.25 248.91L310.47 254.01L307.51 258.99L304.37 263.84L301.04 268.56L297.54 273.15L293.87 277.6L290.04 281.9L286.05 286.05L281.9 290.04L277.6 293.87L273.15 297.54L268.56 301.04L263.84 304.37L258.99 307.51L254.01 310.47L248.91 313.25L243.69 315.83L238.36 318.2L232.93 320.38L227.39 322.35L221.76 324.1L216.03 325.64L210.21 326.95L204.32 328.04L198.34 328.89L192.29 329.5L186.18 329.87L180 330L173.82 329.87L167.71 329.5L161.66 328.89L155.68 328.04L149.79 326.95L143.97 325.64L138.24 324.1L132.61 322.35L127.07 320.38L121.64 318.2L116.31 315.83L111.09 313.25L105.99 310.47L101.01 307.51L96.16 304.37L91.44 301.04L86.85 297.54L82.4 293.87L78.1 290.04L73.95 286.05L69.96 281.9L66.13 277.6L62.46 273.15L58.96 268.56L55.63 263.84L52.49 258.99L49.53 254.01L46.75 248.91L44.17 243.69L41.8 238.36L39.62 232.93L37.65 227.39L35.9 221.76L34.36 216.03L33.05 210.21L31.96 204.32L31.11 198.34L30.5 192.29L30.13 186.18L30 180L30.13 173.82L30.5 167.71L31.11 161.66L31.96 155.68L33.05 149.79L34.36 143.97L35.9 138.24L37.65 132.61L39.62 127.07L41.8 121.64L44.17 116.31L46.75 111.09L49.53 105.99L52.49 101.01L55.63 96.16L58.96 91.44L62.46 86.85L66.13 82.4L69.96 78.1L73.95 73.95L78.1 69.96L82.4 66.13L86.85 62.46L91.44 58.96L96.16 55.63L101.01 52.49L105.99 49.53L111.09 46.75L116.31 44.17L121.64 41.8L127.07 39.62L132.61 37.65L138.24 35.9L143.97 34.36L149.79 33.05L155.68 31.96L161.66 31.11L167.71 30.5L173.82 30.13L180 30L186.18 30.13L192.29 30.5ZM123.79 104.25L122.88 104.28L121.99 104.32L121.09 104.37L120.21 104.43L119.33 104.51L118.46 104.59L117.59 104.69L116.73 104.79L115.88 104.91L115.03 105.04L114.19 105.17L113.35 105.32L112.53 105.48L111.7 105.65L110.89 105.84L110.08 106.03L109.28 106.23L108.48 106.44L107.69 106.67L106.91 106.9L106.13 107.15L105.36 107.4L104.6 107.67L103.84 107.94L103.09 108.23L102.35 108.53L101.61 108.83L100.88 109.15L100.16 109.48L99.45 109.81L98.74 110.16L98.03 110.52L97.34 110.89L96.65 111.26L95.97 111.65L95.29 112.05L94.62 112.45L93.96 112.87L92.58 113.79L91.23 114.75L89.91 115.76L88.62 116.8L87.36 117.89L86.14 119.03L84.95 120.2L83.79 121.42L82.66 122.67L81.57 123.97L80.51 125.31L79.48 126.69L78.49 128.11L77.53 129.56L76.6 131.06L75.71 132.59L74.85 134.17L74.03 135.78L73.24 137.43L72.49 139.11L71.77 140.83L71.08 142.59L70.43 144.38L69.82 146.21L69.24 148.08L68.7 149.98L68.2 151.91L67.73 153.88L67.3 155.88L66.9 157.91L66.54 159.98L66.22 162.08L65.93 164.21L65.69 166.38L65.48 168.57L65.3 170.8L65.17 173.06L65.07 175.34L65.02 177.66L65 180.01L65.04 183.45L65.16 186.82L65.37 190.14L65.66 193.38L66.03 196.56L66.48 199.66L67.01 202.7L67.62 205.67L68.31 208.56L69.08 211.38L69.93 214.13L70.85 216.79L71.85 219.39L72.93 221.9L74.08 224.33L75.3 226.68L76.6 228.95L77.98 231.14L79.42 233.24L80.94 235.26L82.53 237.19L84.19 239.03L85.93 240.78L87.73 242.44L89.6 244.01L91.54 245.49L93.55 246.88L95.63 248.16L97.77 249.36L99.98 250.45L102.26 251.45L104.6 252.34L107.01 253.14L109.48 253.83L112.01 254.42L114.61 254.91L117.27 255.29L119.99 255.56L122.77 255.72L125.61 255.78L126.96 255.77L128.3 255.75L129.61 255.71L130.92 255.66L132.2 255.59L133.48 255.5L134.74 255.39L135.98 255.27L137.22 255.13L138.44 254.96L139.65 254.78L140.85 254.57L142.03 254.34L143.21 254.09L144.38 253.81L145.54 253.52L146.68 253.19L147.82 252.84L148.96 252.47L150.08 252.07L151.2 251.64L152.31 251.18L153.41 250.7L154.51 250.19L155.61 249.64L156.69 249.07L157.78 248.46L158.86 247.83L159.94 247.16L161.01 246.45L162.08 245.72L163.16 244.95L164.22 244.14L165.29 243.3L166.36 242.42L167.43 241.51L168.5 240.56L169.56 239.57L170.63 238.54L171.71 237.47L171.91 237.26L172.1 237.06L172.29 236.85L172.48 236.64L172.65 236.43L172.83 236.22L172.99 236.01L173.15 235.8L173.3 235.6L173.45 235.39L173.59 235.17L173.73 234.96L173.86 234.75L173.99 234.54L174.11 234.33L174.22 234.12L174.33 233.91L174.43 233.7L174.53 233.49L174.63 233.28L174.71 233.07L174.8 232.87L174.88 232.66L174.95 232.45L175.02 232.24L175.08 232.04L175.14 231.83L175.19 231.63L175.24 231.43L175.29 231.22L175.33 231.02L175.36 230.82L175.39 230.62L175.42 230.42L175.44 230.23L175.46 230.03L175.48 229.84L175.49 229.64L175.49 229.45L175.49 229.26L175.49 228.84L175.46 228.42L175.41 228L175.34 227.59L175.26 227.18L175.16 226.78L175.04 226.39L174.91 226L174.76 225.62L174.59 225.25L174.41 224.88L174.22 224.52L174.01 224.17L173.79 223.83L173.55 223.5L173.31 223.17L173.05 222.86L172.78 222.55L172.5 222.26L172.21 221.97L171.9 221.69L171.59 221.43L171.27 221.18L170.95 220.94L170.61 220.71L170.27 220.49L169.92 220.29L169.56 220.1L169.2 219.92L168.83 219.76L168.46 219.61L168.08 219.47L167.7 219.35L167.32 219.24L166.93 219.15L166.54 219.08L166.15 219.02L165.76 218.98L165.36 218.95L164.97 218.94L164.78 218.95L164.59 218.95L164.41 218.96L164.22 218.98L164.03 218.99L163.85 219.02L163.66 219.04L163.48 219.07L163.3 219.11L163.12 219.14L162.93 219.19L162.75 219.23L162.57 219.29L162.4 219.34L162.22 219.4L162.04 219.46L161.86 219.53L161.69 219.6L161.51 219.68L161.34 219.76L161.17 219.85L160.99 219.94L160.82 220.03L160.65 220.13L160.48 220.23L160.31 220.34L160.14 220.45L159.98 220.56L159.81 220.69L159.64 220.81L159.48 220.94L159.31 221.07L159.15 221.21L158.99 221.36L158.82 221.5L158.66 221.66L158.5 221.81L158.34 221.98L158.18 222.14L158.03 222.31L157.31 223.11L156.6 223.87L155.88 224.62L155.16 225.34L154.43 226.04L153.7 226.71L152.97 227.36L152.23 227.99L151.49 228.59L150.74 229.18L149.99 229.74L149.23 230.27L148.47 230.79L147.71 231.29L146.94 231.76L146.16 232.21L145.38 232.64L144.59 233.05L143.8 233.44L143 233.81L142.2 234.16L141.39 234.49L140.57 234.8L139.75 235.09L138.92 235.36L138.09 235.61L137.24 235.84L136.39 236.06L135.54 236.25L134.67 236.43L133.8 236.59L132.92 236.73L132.04 236.86L131.14 236.96L130.24 237.05L129.33 237.13L128.42 237.18L127.49 237.22L126.56 237.25L125.61 237.26L123.45 237.2L121.36 237.04L119.34 236.78L117.39 236.42L115.5 235.95L113.67 235.4L111.91 234.75L110.22 234.01L108.59 233.19L107.02 232.28L105.52 231.29L104.07 230.22L102.69 229.08L101.37 227.86L100.1 226.58L98.9 225.23L97.75 223.81L96.66 222.34L95.63 220.8L94.65 219.21L93.72 217.56L92.85 215.87L92.04 214.13L91.27 212.34L90.56 210.52L89.9 208.65L89.29 206.75L88.73 204.81L88.22 202.85L87.76 200.85L87.34 198.83L86.97 196.79L86.65 194.73L86.37 192.66L86.14 190.57L85.95 188.46L85.81 186.35L85.7 184.24L85.64 182.12L85.62 180.01L85.63 179.33L85.63 178.65L85.64 177.98L85.66 177.3L85.68 176.62L85.7 175.94L85.73 175.27L85.76 174.59L85.79 173.91L85.83 173.24L85.88 172.56L85.93 171.89L85.98 171.21L86.04 170.54L86.1 169.87L86.17 169.2L86.24 168.53L86.31 167.86L86.39 167.19L86.48 166.53L86.57 165.86L86.66 165.2L86.76 164.54L86.87 163.88L86.97 163.22L87.09 162.57L87.2 161.91L87.33 161.26L87.45 160.61L87.59 159.97L87.72 159.32L87.86 158.68L88.01 158.04L88.16 157.41L88.32 156.77L88.48 156.14L88.65 155.52L88.82 154.89L88.99 154.27L89.18 153.65L89.58 152.35L90 151.06L90.45 149.79L90.93 148.54L91.42 147.31L91.94 146.1L92.49 144.9L93.06 143.73L93.65 142.58L94.27 141.46L94.92 140.35L95.59 139.28L96.28 138.22L97 137.2L97.75 136.2L98.53 135.23L99.33 134.29L100.15 133.38L101.01 132.5L101.89 131.65L102.8 130.84L103.74 130.06L104.7 129.31L105.7 128.6L106.72 127.93L107.77 127.29L108.85 126.69L109.96 126.13L111.09 125.61L112.26 125.13L113.46 124.69L114.69 124.29L115.94 123.94L117.23 123.63L118.55 123.37L119.9 123.15L121.28 122.98L122.69 122.86L124.14 122.78L125.61 122.76L126.56 122.76L127.49 122.79L128.42 122.83L129.33 122.88L130.24 122.96L131.14 123.05L132.04 123.16L132.92 123.28L133.8 123.42L134.67 123.58L135.54 123.76L136.39 123.95L137.24 124.17L138.09 124.4L138.92 124.65L139.75 124.92L140.57 125.21L141.39 125.52L142.2 125.85L143 126.2L143.8 126.57L144.59 126.96L145.38 127.37L146.16 127.8L146.94 128.25L147.71 128.73L148.47 129.22L149.23 129.74L149.99 130.28L150.74 130.84L151.49 131.42L152.23 132.02L152.97 132.65L153.7 133.3L154.43 133.98L155.16 134.67L155.88 135.39L156.6 136.14L157.31 136.91L158.03 137.7L158.18 137.87L158.34 138.04L158.5 138.2L158.66 138.36L158.82 138.51L158.99 138.66L159.15 138.8L159.31 138.94L159.48 139.07L159.64 139.2L159.81 139.33L159.98 139.45L160.14 139.56L160.31 139.67L160.48 139.78L160.65 139.88L160.82 139.98L160.99 140.08L161.17 140.17L161.34 140.25L161.51 140.33L161.69 140.41L161.86 140.48L162.04 140.55L162.22 140.61L162.4 140.67L162.57 140.72L162.75 140.78L162.93 140.82L163.12 140.86L163.3 140.9L163.48 140.94L163.66 140.97L163.85 140.99L164.03 141.02L164.22 141.03L164.41 141.05L164.59 141.06L164.78 141.06L164.97 141.07L165.36 141.06L165.76 141.03L166.15 140.99L166.54 140.93L166.93 140.86L167.32 140.76L167.7 140.66L168.08 140.54L168.46 140.4L168.83 140.25L169.2 140.09L169.56 139.91L169.92 139.72L170.27 139.52L170.61 139.3L170.95 139.07L171.28 138.83L171.59 138.58L171.9 138.31L172.21 138.04L172.5 137.75L172.78 137.46L173.05 137.15L173.31 136.84L173.55 136.51L173.79 136.18L174.01 135.84L174.22 135.49L174.41 135.13L174.59 134.76L174.76 134.39L174.91 134.01L175.04 133.62L175.16 133.23L175.26 132.83L175.34 132.42L175.41 132.01L175.46 131.6L175.49 131.18L175.49 130.75L175.49 130.56L175.49 130.37L175.48 130.18L175.46 129.98L175.44 129.79L175.42 129.59L175.39 129.39L175.36 129.19L175.33 128.99L175.29 128.79L175.24 128.59L175.19 128.38L175.14 128.18L175.08 127.97L175.02 127.77L174.95 127.56L174.88 127.35L174.8 127.15L174.71 126.94L174.63 126.73L174.53 126.52L174.43 126.31L174.33 126.1L174.22 125.89L174.11 125.68L173.99 125.47L173.86 125.26L173.73 125.05L173.59 124.84L173.45 124.63L173.3 124.42L173.15 124.21L172.99 124L172.83 123.79L172.65 123.58L172.48 123.37L172.29 123.16L172.1 122.96L171.91 122.75L171.71 122.54L170.63 121.48L169.56 120.45L168.5 119.46L167.43 118.5L166.36 117.59L165.29 116.71L164.22 115.87L163.16 115.06L162.08 114.29L161.01 113.56L159.94 112.85L158.86 112.18L157.78 111.55L156.69 110.94L155.61 110.37L154.51 109.82L153.41 109.31L152.31 108.83L151.2 108.37L150.08 107.94L148.96 107.54L147.82 107.17L146.68 106.82L145.54 106.5L144.38 106.2L143.21 105.92L142.03 105.67L140.85 105.44L139.65 105.24L138.44 105.05L137.22 104.89L135.98 104.74L134.74 104.62L133.48 104.51L132.2 104.42L130.92 104.35L129.61 104.3L128.3 104.26L126.96 104.24L125.61 104.23L124.7 104.24L123.79 104.25ZM283.58 104.25L283.25 104.27L282.93 104.3L282.61 104.34L282.31 104.39L282 104.44L281.71 104.51L281.42 104.58L281.13 104.66L280.86 104.75L280.59 104.85L280.32 104.96L280.06 105.08L279.81 105.21L279.56 105.34L279.32 105.48L279.09 105.63L278.86 105.8L278.63 105.96L278.42 106.14L278.2 106.33L278 106.52L277.79 106.73L277.6 106.94L277.41 107.16L277.22 107.39L277.04 107.63L276.86 107.88L276.69 108.13L276.52 108.4L276.36 108.67L276.2 108.95L276.05 109.24L275.9 109.54L275.75 109.85L275.61 110.17L275.48 110.49L275.34 110.83L275.21 111.17L238.59 214.94L201.97 111.17L201.84 110.83L201.71 110.49L201.57 110.17L201.43 109.85L201.29 109.54L201.14 109.24L200.99 108.95L200.83 108.67L200.67 108.4L200.5 108.13L200.33 107.88L200.15 107.63L199.97 107.39L199.78 107.16L199.59 106.94L199.39 106.73L199.19 106.52L198.98 106.33L198.77 106.14L198.55 105.96L198.33 105.8L198.1 105.64L197.86 105.48L197.62 105.34L197.37 105.21L197.12 105.08L196.86 104.96L196.6 104.85L196.33 104.75L196.05 104.66L195.77 104.58L195.48 104.51L195.18 104.44L194.88 104.39L194.57 104.34L194.25 104.3L193.93 104.27L193.6 104.25L193.26 104.23L192.92 104.23L192.48 104.24L192.04 104.26L191.61 104.3L191.18 104.35L190.76 104.42L190.35 104.51L189.94 104.61L189.54 104.72L189.14 104.85L188.75 104.99L188.37 105.15L188 105.32L187.64 105.51L187.28 105.7L186.93 105.92L186.59 106.14L186.27 106.38L185.95 106.63L185.64 106.9L185.34 107.18L185.06 107.47L184.78 107.77L184.52 108.08L184.27 108.41L184.03 108.75L183.8 109.1L183.59 109.46L183.39 109.84L183.2 110.22L183.03 110.62L182.88 111.03L182.74 111.45L182.61 111.88L182.5 112.32L182.41 112.77L182.33 113.23L182.27 113.7L182.22 114.18L182.19 114.67L182.19 115.17L182.19 115.27L182.19 115.36L182.19 115.46L182.19 115.55L182.2 115.65L182.2 115.74L182.2 115.84L182.21 115.93L182.22 116.03L182.23 116.12L182.23 116.22L182.24 116.31L182.25 116.41L182.26 116.51L182.27 116.6L182.29 116.7L182.3 116.8L182.31 116.9L182.33 116.99L182.34 117.09L182.36 117.19L182.38 117.29L182.39 117.39L182.41 117.49L182.43 117.59L182.45 117.69L182.47 117.79L182.5 117.9L182.52 118L182.54 118.1L182.57 118.2L182.59 118.31L182.62 118.41L182.64 118.52L182.67 118.63L182.7 118.73L182.73 118.84L182.76 118.95L182.79 119.06L182.82 119.17L229.33 244.61L229.46 244.93L229.59 245.23L229.72 245.53L229.85 245.83L229.99 246.12L230.13 246.4L230.27 246.68L230.42 246.95L230.57 247.22L230.72 247.47L230.88 247.72L231.04 247.97L231.21 248.21L231.38 248.44L231.56 248.66L231.74 248.88L231.93 249.08L232.13 249.29L232.33 249.48L232.54 249.66L232.76 249.84L232.98 250.01L233.21 250.17L233.45 250.33L233.7 250.47L233.96 250.61L234.22 250.74L234.5 250.86L234.78 250.97L235.07 251.07L235.38 251.16L235.69 251.24L236.01 251.32L236.35 251.38L236.69 251.43L237.05 251.48L237.42 251.51L237.8 251.54L238.19 251.56L238.59 251.56L238.87 251.56L239.14 251.54L239.41 251.52L239.67 251.49L239.94 251.45L240.2 251.4L240.46 251.35L240.71 251.28L240.97 251.21L241.22 251.13L241.48 251.04L241.72 250.94L241.97 250.83L242.22 250.71L242.46 250.58L242.7 250.45L242.94 250.31L243.18 250.15L243.41 249.99L243.64 249.82L243.87 249.65L244.1 249.46L244.33 249.26L244.55 249.06L244.77 248.85L244.99 248.63L245.21 248.4L245.43 248.16L245.64 247.91L245.85 247.65L246.06 247.39L246.27 247.11L246.47 246.83L246.68 246.54L246.88 246.24L247.08 245.93L247.28 245.62L247.47 245.29L247.66 244.96L247.85 244.61L294.36 119.17L294.39 119.06L294.43 118.95L294.45 118.84L294.48 118.73L294.51 118.63L294.54 118.52L294.57 118.41L294.59 118.31L294.62 118.2L294.64 118.1L294.66 118L294.69 117.9L294.71 117.79L294.73 117.69L294.75 117.59L294.77 117.49L294.79 117.39L294.81 117.29L294.82 117.19L294.84 117.09L294.85 116.99L294.87 116.9L294.88 116.8L294.9 116.7L294.91 116.6L294.92 116.51L294.93 116.41L294.94 116.31L294.95 116.22L294.96 116.12L294.97 116.03L294.97 115.93L294.98 115.84L294.98 115.74L294.99 115.65L294.99 115.55L294.99 115.46L295 115.36L295 115.27L295 115.17L294.99 114.67L294.96 114.18L294.92 113.7L294.86 113.23L294.78 112.77L294.68 112.32L294.57 111.88L294.45 111.45L294.31 111.03L294.15 110.62L293.98 110.22L293.79 109.84L293.59 109.46L293.38 109.1L293.15 108.75L292.92 108.41L292.66 108.08L292.4 107.77L292.13 107.47L291.84 107.18L291.54 106.9L291.23 106.63L290.92 106.38L290.59 106.14L290.25 105.92L289.9 105.7L289.55 105.51L289.18 105.32L288.81 105.15L288.43 104.99L288.04 104.85L287.64 104.72L287.24 104.61L286.83 104.51L286.42 104.42L286 104.35L285.57 104.3L285.14 104.26L284.7 104.24L284.26 104.23L283.92 104.23L283.58 104.25Z" id="bdba3fq8S"></path></defs><g><g><g><use xlink:href="#bdba3fq8S" opacity="1" fill="#ffffff" fill-opacity="1"></use></g></g></g></svg>